<svg id="Layer_1" data-name="Layer 1" xmlns="http://www.w3.org/2000/svg" viewBox="0 0 674.92 522.97"><defs><style>.cls-1{fill:#24221f;}.cls-2{fill:#645674;}.cls-3{fill:#272623;}.cls-4{fill:#252320;}.cls-5{fill:#2a2e26;}.cls-6{fill:#292d24;}.cls-7{fill:#292626;}.cls-8{fill:#2b2828;}.cls-9{fill:#2d3129;}.cls-10{fill:#e8e9f5;}.cls-11{fill:#2c2a2a;}.cls-12{fill:#586a58;}.cls-13{fill:#393737;}.cls-14{fill:#272423;}.cls-15{fill:#2a2728;}.cls-16{fill:#2a2627;}.cls-17{fill:#e8e8f4;}.cls-18{fill:#25221f;}.cls-19{fill:#302f2d;}.cls-20{fill:#343332;}.cls-21{fill:#383737;}.cls-22{fill:#464546;}.cls-23{fill:#625471;}.cls-24{fill:#61536f;}.cls-25{fill:#353433;}.cls-26{fill:#3b393a;}</style></defs><path class="cls-1" d="M656.43,396.8q-5.29,38.44-10.62,76.88c-1.46,10.51-2.93,21-4.64,31.5-.49,2.95.16,3.83,3.13,3.75,6.32-.17,12.66.06,19-.11,2.73-.07,4,.61,3.75,3.57-.26,3.48-.13,7-.17,10.49q-331.09,0-662.21.09c-3.74,0-5-.82-4.57-4.6a83.37,83.37,0,0,0,.08-9.49H91.05c-.8-2-1.4-3.44-2-4.91-.13-1.47.8-1.41,1.8-1.26,3.71,3.1,8.09,3.21,12.66,3.21q105.33-.09,210.65-.08c2.07,0,4.88,1.06,6.05-1s-1.13-3.9-2.12-5.74c-1.19-2.18-2.71-4.21-3-6.78a3.31,3.31,0,0,1,.68-2.27c2.84-1.25,4,1.11,4.92,2.79,1.4,2.46,3.27,3,5.77,2.55a4.27,4.27,0,0,1,1.81,1.27,3.65,3.65,0,0,0,3.11,1.27c9.46.24,19,1.16,27.71-4,8.13-4.8,17.36-3.88,26.21-4.84,9.63-1,19.15-2.4,28-6.48,6.41-2.95,11.62-7.1,13.62-14.3.53-1.91,1.12-4.63,3.38-4.33,2.66.34,2.18,3.26,2.28,5.36a7.69,7.69,0,0,1-.37,2.46c-.35,1.39-1.48,2.37-1.91,3.72-3.77,6.22-9.35,10.24-15.94,13-11.83,4.95-24.38,6.36-37,7.17-4.66.3-9.31.22-12.89,2.26,24.05,0,48.84-.09,73.63,0,5.76,0,6.19.62,8.48,7.63a5.17,5.17,0,0,0,4,1.72c12.83-.21,25.67.52,38.46-.39.54-.69.4-1.69,1-2.35a3.81,3.81,0,0,1,2.86-.78A43.18,43.18,0,0,0,502.8,505q63.46,0,126.94,0c7.53,0,7.67,0,8.73-7.44q6.39-45,12.58-90c.69-5.13.47-5.27-4.48-3.15-17.76,7.59-35.4,15.49-53.2,23-3.83,1.62-5.34,4-5.89,8.17-1.19,9.12-.12,18.3-1.48,27.41-1.23,8.3-2.43,9.55-11,8.2-24.34-3.84-48.64-7.95-73-11.74-23.2-3.6-46.29-7.9-69.57-11A81,81,0,0,0,401.73,450c-15.4,3.95-30.14,9.62-43.6,18.26-1.68,1.08-3.3,2.29-5.41,2.38a2.19,2.19,0,0,1-2.09-1.3c-.23-2.43,1.53-3.59,3.12-4.84,26.35-17.34,54.77-26.26,86.58-21.05,44,7.19,88.07,14.2,132.09,21.35,1.32.21,2.64.32,4,.52,2.31.33,3.48-.61,3.55-2.95.09-3,.78-5.93,1-8.92,1.53-23.12.13-46.17-1.67-69.2-.41-5.32,0-10.65-.67-16-.22-1.92-.18-4.49,2.54-4.57,2.43-.07,3.31,2.23,3.36,4.25.2,7.82.94,15.6,1.35,23.41.46,8.79.73,17.61,1.55,26.37.48,5.15,1.17,5.41,6,3.31,18.32-8,36.63-16,55-23.84C650.87,396.11,653.59,393.7,656.43,396.8Z"/><path class="cls-2" d="M656.43,396.8c-2.54-.83-4.47.83-6.54,1.73-19.85,8.57-39.72,17.09-59.47,25.87-4,1.77-4.56.84-4.74-3.1-.8-17.43-1.9-34.84-2.91-52.26-.1-1.7.28-3.61-1.46-4.86-1.78,1.06-1.16,2.48-1.09,3.7.89,15.09,1.54,30.21,2.77,45.28,1.39,17-.34,33.86-.94,50.78-.12,3.4-1.16,4.25-4.47,3.71-46.05-7.56-92.12-15-138.17-22.54-29.49-4.86-55.88,3.75-81,18.14-1.44.82-2.82,1.74-4.23,2.62-2.52-1.74-2.63-4.55-2.82-7.12-.35-4.61-.87-9.23-.84-13.86a18.69,18.69,0,0,0-.45-4,45.82,45.82,0,0,0-.29-14.82c-1.83-8.62,2.1-16.15,5.15-23.82,7.39-18.61,14.54-37.31,21.93-55.91-8.3,20.9-16.42,41.88-24.62,62.82-2.46,6.29-3.49,6.8-9.27,3.53-10.7-6.05-20.95-12.84-31.58-19a22.58,22.58,0,0,1-5.75-4.6c-12.26-6.4-12.29-6.42-5.75-18.08,11.19-19.94,21.19-40.55,33.3-60a97.25,97.25,0,0,1,16.3-20A34.38,34.38,0,0,1,359.74,284c19.14-7.8,38.34-15.45,57.52-23.15,3.57-.71,5.23,2.47,7.7,3.92a18.85,18.85,0,0,1,4,2.93c2.33,2.37,3.81,1.56,5.47-.87,5-7.27,10.38-14.22,15.19-21.61.47-.72.91-1.38,1.86-1.46,2,.86,2.11,2.85,2.63,4.55,1.81,6,4,11.85,5.37,16.53a57.84,57.84,0,0,1,6.7-20c2.12-.17,2.81,1.67,3.62,2.93,4.19,6.56,9.48,12.32,13.61,18.91,1.72,2.73,3.19,2.9,5.89.83,8.4-6.42,16.64-13,25.06-19.43,1.5-1.13,2.85-2.25,4.83-2.13,10.27,8.4,23.06,11.33,35,16,20.31,8,41.36,14,61.22,23.14,15.86,7.31,29.77,17.05,37.11,33.69,2.72,6.18,4.55,12.75,6.71,19.17,5,15,9.92,30.12,15.13,45.09,1.12,3.21.6,4.63-2.48,6C666.64,391.39,661.58,394.2,656.43,396.8Z"/><path class="cls-1" d="M433.76,237c.9-3.71-.82-7.22-.9-10.87-.08-3.31-2.22-1.85-3.89-1.28-7.2,2.46-14.08,5.84-21.53,7.62-3.47.82-7.3,1.64-10.25-.07-4.86-2.83-8.41-1.23-11.84,1.92-3.09,2.83-5.35,2.43-8.2-.58-9.41-9.94-13.83-22.09-16.13-35.19-4.17-23.75-3.42-47.68-2.29-71.62.56-11.79,1.1-23.57,2.11-35.33,1.75-20.38,11.32-35.8,28.6-46.41C409.16,33,430.26,24.64,453.53,22.46c4.87-.45,9.62.61,14.41,1,1.77.13,2.56.25,3.05-1.87C474.08,8.18,482.18.54,493.46,0c12.67-.57,22.38,5.57,26.14,16.51C523.6,28.19,519.5,39,508,47c-.27.19-.52.42-.93.75,7.26,9.91,14.17,20,18,31.91,4.29,13.47,6.17,27.16,4.09,41.22-.31,2.1.68,3.46,1.55,5,7,12.7,12.58,25.83,14.4,40.45,1.91,15.31-3.5,27.26-15.13,36.86-7.08,5.83-14.59,11.08-23,14.65-4.5,1.9-6.75,4.11-5.08,9.09.46,1.36-.32,3,.88,4.27-2,1.54-2,1.54-4-2.16-.48-3.91-2.55-4.32-5.92-3.06a100.3,100.3,0,0,1-14.27,4.54c-4.36.92-5.63-.08-5.51-4.42.46-16.77-2.47-33.16-5.54-49.52-1.68-9-3.52-18-5.44-26.92-.85-4-2.81-5.86-6.94-6.37a113.49,113.49,0,0,1-49.23-18.18A81.23,81.23,0,0,1,380,97.5c-1.39,8.74-5,16.59-9.64,24a14.61,14.61,0,0,0-2.07,11.84c.8,3.4,1.46,6.84,2.06,10.28,1.06,6.08,1,6.09,7,5.86,11.5-.45,20.32,7.94,20.27,19.26a18.62,18.62,0,0,1-13.42,17.9c-3.75,1.13-4.67,2.69-3.82,6.39,1.93,8.43,3.24,17,7,24.94,4.95,10.44,11.18,13.31,22.27,10.05,6.08-1.78,11.89-4.32,17.81-6.56,6.13-2.32,8.21-1.16,9.08,5.44.5,3.8,2.47,7.81-.55,11.49C434.8,238.64,433.81,238.56,433.76,237Z"/><path class="cls-2" d="M500.1,229.16c1.28.2-.09,3.72,2.64,2.1,5.1-3,7.83-1.39,9.7,4.09,1.12,3.32,3.67,6.16,5.58,9.21-5,6.28-12.11,10.06-18.13,15.14-3.52,3-7.23,5.77-11,8.48-2.08,1.5-3.73,1.6-5.08-.41-5.06-7.58-10.93-14.57-15.88-22.22a1.83,1.83,0,0,1-.17-1.89c1.47-2,3.75-2.64,5.91-3.43,6.38-2.31,12.64-4.95,19.1-7C495.54,232.33,497.57,230.34,500.1,229.16Z"/><path class="cls-3" d="M305.63,389.08c9.95,4.32,18.51,11,27.92,16.27a105.45,105.45,0,0,1,11,6.8c3.64,2.66,5,1.21,6.31-2.33,8.29-21.55,16.73-43.06,25.16-64.56.69-1.75,1.08-3.75,2.82-5.08,1.74,2,.15,3.38-.38,4.73-8.58,22.16-17.1,44.35-26,66.4-2.12,5.28-1.63,10.39-1,15.65.53,4.65,1,9.27-.19,13.88.43,1.71-.57,3.34-.32,5.05-.5,7.78-2.66,15.28-4,23.09,1.35.91,2.74-1.16,4,0l1.11,1a2.38,2.38,0,0,1-.73,2.7c-4.35,3.82-8.3,8-12.4,12.1a2.52,2.52,0,0,1-2.31.6,2,2,0,0,1-1.3-1.72,2.92,2.92,0,0,1,.41-1.93c5.86-7.06,6.19-15.95,8-24.33,1-4.38,1.49-8.89,2.85-13.17,2.47-7.76.91-15.52.39-23.29-.17-2.43-1.81-3.82-3.69-5-10.4-6.61-21.11-12.72-31.52-19.32-2.56-1.63-3.4-.74-3.92,1.89-3.33,16.82-7,33.58-10.24,50.41-.65,3.37.33,6.18,2,9,5.1,8.59,10.61,16.94,15.52,25.63,1.1,1.94,3,3.78,1.69,6.39l-1,1.22c-2.29.22-3.2-1.53-4.11-3.06-6.62-11.16-13.64-22.07-20.19-33.27-.84-1.43-1.71-2.88-1.35-4.67.29-.75.71-1.33,1.64-1.17,2.84,2.22,2-.71,2.23-1.7,3-14.37,6-28.74,8.86-43.15C304,399.12,305.62,394.24,305.63,389.08Z"/><path class="cls-2" d="M433.76,237a2.66,2.66,0,0,0,2.36.92c5.78-.76,10.2,1.91,14.2,5.62-.56,3.45-3.12,5.68-4.95,8.39-3.4,5.05-7.12,9.87-10.53,14.91-1.86,2.77-3.67,3.44-6.35.89-3.1-2.94-7.74-4.19-9.51-8.62,2.67-7.42,5.13-14.91,8.07-22.21C429,231.92,431.5,237.21,433.76,237Z"/><path class="cls-4" d="M13.3,370.94,4.5,355.89c1.56-1.21,2.92-.79,4.13-.79q111.41,0,222.79-.1c3.26,0,5.26.84,6.67,3.76,1.5,3.12,3.33,6.09,5,9.12.13,1.47-.77,1.41-1.78,1.21-3-1.31-4.13-4.27-5.72-6.73A6.57,6.57,0,0,0,229.4,359c-1.66.05-3.33,0-5,0H19.51c-1.17,0-2.33-.05-3.5,0-4.1.22-4.42.72-2.72,4.46.83,1.82,1.94,3.52,1.76,5.64C14.82,370,14.54,370.94,13.3,370.94Z"/><path class="cls-5" d="M90,502.89l-1,1.08c-9.65-16.76-19.34-33.49-28.91-50.29C53,441.19,46.09,428.59,39.07,416.05c-.44-1,.19-1.31,1-1.47,2.59.62,3.49,2.88,4.64,4.87C59.34,444.92,73.64,470.57,88.33,496,89.52,498.07,91.33,500.14,90,502.89Z"/><path class="cls-6" d="M242.13,369l1-1.09q16.35,26.88,32.68,53.77c5.47,9,10.75,18.2,16.11,27.3l-1,1.16c-2.68,0-3.49-2.28-4.56-4.05-14.24-23.73-28.55-47.42-42.72-71.19C242.59,373.11,240.91,371.37,242.13,369Z"/><path class="cls-7" d="M467.93,244.18c5.32,7.22,10.75,14.36,15.89,21.71,1.77,2.53,2.88,2.74,5.35.79,9.51-7.51,19.22-14.77,28.85-22.11L519.2,246q-15.44,12.11-30.88,24.19c-1.08.85-2.22,2.51-3.63.45-5.88-8.58-13-16.27-17.89-25.57C466.78,244.21,467.05,243.79,467.93,244.18Z"/><path class="cls-8" d="M419,259.07c3.15,2.41,6.42,4.68,9.39,7.29,2.54,2.24,4,2.34,6.06-.77,5-7.4,10.42-14.49,15.68-21.7a.68.68,0,0,1,.94.31c-.3,3.56-3,5.79-4.83,8.46-3.85,5.55-7.93,11-11.66,16.59-1.6,2.43-2.85,2.57-5,.83-4-3.18-8.16-6.14-12.26-9.2C417.84,260.28,418.41,259.67,419,259.07Z"/><path class="cls-9" d="M40.06,414.94l-1,1.11C30,401.3,21.6,386.14,13.3,370.94l1-1.21c2.64.12,3.49,2.32,4.52,4.13,6.59,11.55,13.22,23.07,19.79,34.62C39.69,410.42,41.33,412.39,40.06,414.94Z"/><path class="cls-10" d="M40.06,414.94c-8.25-15.27-16.72-30.41-25.78-45.21L8.15,358c1.13-1.46,2.57-.81,3.76-.81q109.35-.06,218.7-.11c3,0,4.9.82,6.31,3.49,1.55,2.91,3.46,5.63,5.21,8.44,15.93,27.25,32.09,54.37,48.8,81.14,7.8,14,16.25,27.59,25,41l9.7,16.82h-6q-109.84,0-219.69.11c-4.58,0-8-.64-9.86-5.16q-19.74-35-39.5-70C47.12,426.89,43.56,420.93,40.06,414.94Z"/><path class="cls-10" d="M337,484.91a161.41,161.41,0,0,1,15.1-15c15.6-11.21,33.09-18.09,51.68-22.32,13.9-3.17,27.75-1.64,41.62.63Q497,456.72,548.69,465c10.33,1.66,20.68,3.23,31,5,3.19.56,4.32,0,4.43-3.57.34-11.47,1.11-22.93,1.69-34.4.09-1.81-.07-3.36,2.26-4.36,21.77-9.34,43.48-18.85,66-28.67-.92,7-1.69,13.32-2.57,19.62-3.88,27.8-7.87,55.59-11.59,83.42-.52,3.85-1.63,5.21-5.74,5.2q-66.68-.24-133.36,0a22.05,22.05,0,0,1-9-2.29c-9.08-2.05-16.43-7.76-24.5-11.88-10.8-5.51-21.39-11.47-32-17.31-1.73-1-3.72-1.6-4.36-3.8-.76-2.41.82-4.94-.34-7.33A1.23,1.23,0,0,0,429,466c-.08,7.72-4.59,12.51-10.75,16.15-9.51,5.63-20.14,7.43-30.86,8.68-5.6.66-11.28.64-16.91,1-5.26.37-9.77,3.11-14.27,5.39-9.39,4.74-19.27,1.95-28.9,2.52-2.8.16-.09-1.74-.24-2.67A22.39,22.39,0,0,1,337,484.91Z"/><path class="cls-10" d="M316.91,489.9C310.33,479,303.78,468,297.14,457.14a9.16,9.16,0,0,1-1.38-7.38c4-19,7.71-38,11.51-57,2-.28,3.19,1.07,4.56,1.9,10.8,6.51,21.47,13.23,32.4,19.51,3.53,2,4.24,4.6,4.9,8.29,2.17,12.21-1.27,23.7-3.57,35.37-.45,2.27-1.16,4.51-1.46,6.8-.93,7.15-2.61,13.93-8.16,19.09-2.49,4.71-5.52,9-9.91,12.15-2,2.55-3.72,3.79-5.45-.36C319.73,493.5,318.15,491.77,316.91,489.9Z"/><path class="cls-2" d="M444.29,507.81c-.49-7.87-.49-7.87-8.76-7.87h-77.4c4.57-3.26,9.15-6,15-6.11,14-.17,27.9-1.78,41-7.21,6.21-2.58,11.84-6.1,14.88-12.56,1.88-1.52,3.47-.13,5,.67,15.29,8,30.54,16.15,45.55,24.71,3.53,2,7.89,2.74,10.44,6.38l2,1.35c-.26,1.38-1.38,1.2-2.32,1.2-14.69,0-29.38.05-44.07,0A2.7,2.7,0,0,1,444.29,507.81Z"/><path class="cls-11" d="M490,505.82Q462.25,491,434.51,476.14c-1.72-.91-3.32-2.32-5.5-2.08l1.95-2.13,60.89,33Z"/><path class="cls-12" d="M444.29,507.81l43.88.07c1.32,0,2.68.13,3.85-.72,2.75,2.17,0,1.68-.9,1.69-5.14.07-10.28,0-15.42,0-8.95,0-17.9,0-26.86,0C447.3,508.84,445.47,509.58,444.29,507.81Z"/><path class="cls-13" d="M326,495.9a92.38,92.38,0,0,1,9.91-12.15l1.08,1.16a92.56,92.56,0,0,1-9.91,12.17Z"/><path class="cls-10" d="M451.05,244.2l-.94-.31-14-6c-.53-4.62-1.08-9.23-1.59-13.86-.27-2.51-1-3.31-3.78-2.15-7.49,3.11-14.94,6.41-22.85,8.37-10,2.49-16.12-.18-21.06-9.33-5.29-9.81-6.68-20.75-8.9-31.45-.2-1-.38-1.93-.58-3,1.95-.4,3.91-.69,5.8-1.22a17.44,17.44,0,0,0-8.77-33.76c-3.19.85-4.34.76-4.75-2.82A72.61,72.61,0,0,0,367,135.54c-2-6.33-.87-11.55,3-17,5.27-7.36,7.77-16.06,9.27-25.9a80.35,80.35,0,0,0,22.65,27.57c16.59,12.9,35.73,19.35,56.35,21.83,3,.35,4.17,1.27,4.84,4.29,4.89,22.05,9.44,44.15,11.44,66.69a76.15,76.15,0,0,1-.22,16.77,96.86,96.86,0,0,0,20.42-6.42c4.12-1.86,5.29-.7,5.17,3.32a20.87,20.87,0,0,0,.19,2.49c.35,2.69-1.3,3.58-3.52,4.39-9.58,3.46-19.11,7.07-28.65,10.63-.65-.09-1,.26-1.12.84q-3.57,11.41-7.12,22.83l-1,0Q454.88,256,451.05,244.2Z"/><path class="cls-14" d="M510.65,352c11.91.91,23.81,1.86,35.72,2.72,2.33.17,3.78.75,3.55,3.5-1,11.82-2.52,23.48-9.8,33.43-4.74,6.48-11.27,9.27-19.14,8.18-7.35-1-11.6-6-14.13-12.61-3.83-10-4.2-20.38-3.71-30.9C503.4,350.75,507.28,351.91,510.65,352Z"/><path class="cls-15" d="M468,331.68c-.39,3.56-2.42,5.51-6.19,5.44s-5.55-2.44-5.65-5.67c-.12-3.69,2.46-5.9,6-5.94S467.82,327.77,468,331.68Z"/><path class="cls-16" d="M450.94,409.83c3.64.24,5.77,1.81,5.94,5.12.19,3.5-1.78,5.74-5.24,5.86s-5.55-2.06-5.59-5.52S448.28,410.43,450.94,409.83Z"/><path class="cls-17" d="M378.69,153A15.34,15.34,0,0,1,394,167,15.77,15.77,0,0,1,380.59,184c-2.9.42-4.15-.53-4.65-3.49-1.09-6.53-2.59-13-3.85-19.47C370.76,154.18,371.77,153,378.69,153Z"/><path class="cls-18" d="M162.49,421.7A18.63,18.63,0,1,1,144,440.43,18.32,18.32,0,0,1,162.49,421.7Z"/><path class="cls-19" d="M418.75,181.54a17.61,17.61,0,0,1-17.39-18,17.64,17.64,0,1,1,35.26,1A17.72,17.72,0,0,1,418.75,181.54Z"/><path class="cls-20" d="M404.65,195.28c-2.65,3.12-6.25,3.56-9.52,4.76-1.06.39-1.93,0-1.71-1.46,1.08-7.33,2.12-14.66,3.21-22,0-.16.54-.24,1.26-.55.7,5.38-.78,10.41-1.44,15.46-.8,6.14-1,6.09,5,4.38C402.46,195.58,403.57,195.48,404.65,195.28Z"/><path class="cls-13" d="M401.7,205.53a79.19,79.19,0,0,0,15.11-6.41c2.2-1.18,3.76.63,4,3,.49,4.35-4.82,9.53-10.06,9.59,1.81-2.62,5.31-3.11,6.58-5.92.6-1.31,2.06-2.78,1-4-1.4-1.66-2.65.32-3.82,1C408.6,206,405.82,206.75,401.7,205.53Z"/><path class="cls-21" d="M407.22,144.58c3.49-5,17-6.39,20.6-2.44a1.4,1.4,0,0,1,.25,1.18c-.32.8-1,.63-1.64.36C419.93,141,413.58,141.42,407.22,144.58Z"/><path class="cls-22" d="M391.14,148.92c-5.71-2.32-11.37-3.33-17.21-.86-.62.26-1.23-.25-1.47-1s.38-.75.73-1C377.56,142.71,387.15,144,391.14,148.92Z"/><path class="cls-2" d="M510.12,354.2c11.42.88,22.83,1.8,34.25,2.63,2,.15,3.71.35,3.36,3-1.28,9.9-2.56,19.8-8,28.52-4.9,7.83-12.65,11.05-20.32,8.68a15,15,0,0,1-9.63-8.77c-4.28-9.82-5.13-20.2-4.14-30.73C505.94,354,506.33,353.92,510.12,354.2Z"/><path class="cls-23" d="M461.92,327.93c2.41,0,3.69,1.21,3.8,3.24.13,2.32-1.31,3.65-3.6,3.78a3.15,3.15,0,0,1-3.54-3.26A3.26,3.26,0,0,1,461.92,327.93Z"/><path class="cls-24" d="M451.72,412.06c1.8.42,3.12,1.53,3,3.4a3.07,3.07,0,0,1-3.68,3.12,3,3,0,0,1-2.78-3.53A3.33,3.33,0,0,1,451.72,412.06Z"/><path class="cls-25" d="M382.38,175.23c-1.48-.16-2.43-.89-2.36-2.53a2.12,2.12,0,0,1,2.34-2.08,2.31,2.31,0,1,1,0,4.61Z"/><path class="cls-10" d="M419,179.49a15.47,15.47,0,1,1,.23-30.94,15.47,15.47,0,0,1-.23,30.94Z"/><path class="cls-26" d="M419.83,169.62c-.41,1.35-1.06,2.55-2.68,2.41a2.25,2.25,0,0,1-2.2-2.72,2.19,2.19,0,0,1,2.25-2.17C418.83,167.08,419.45,168.26,419.83,169.62Z"/></svg>