<svg xmlns="http://www.w3.org/2000/svg" id="Capa_1" enable-background="new 0 0 512.026 512.026" height="512" viewBox="0 0 512.026 512.026" width="512" fill="#3c3347"><g><path d="m511.525 241.705c-1.21-22.482-6.909-49.971-17.666-77.748-3.766-9.725-16.048-12.699-23.855-5.881-5.564 4.859-15.309 3.478-18.563-2.599-3.886-7.256-12.89-10.023-20.179-6.209-17.818 9.326-40.237.637-46.641-19.032-2.388-7.335-9.952-11.665-17.487-10.006-20.777 4.568-40.134-11.324-40.134-32.217 0-8.143 2.995-15.965 8.433-22.025 8.406-9.367 2.187-24.346-10.388-24.997-7.513-.391-12.884-6.94-9.429-12.76 5.277-8.89.174-20.366-9.994-22.373-15.381-3.036-32.039-5.845-49.622-5.845-140.303 0-256 106.637-256 248 0 140.366 114.711 264 256 264 148.992 0 264.611-127.454 255.525-270.308zm-43.83 93.429c-16.703-5.236-28.695-20.835-28.695-39.121 0-23.222 19.421-42.061 42.99-40.947.148 27.26-4.678 54.421-14.295 80.068zm-386.695-127.121c0 26.156-28.999 41.656-50.664 27.883 1.147-21.147 5.289-41.403 12.025-60.399 20.312-3.49 38.639 12.198 38.639 32.516zm175 274c-115.793 0-214.585-95.744-225.064-213.349 40.47 11.345 80.064-19.283 80.064-60.651 0-32.132-24.186-58.704-55.305-62.513 37.448-69.237 112.24-115.487 200.305-115.487 9.639 0 19.241 1.046 28.557 2.521.179 12.837 6.935 24.244 17.288 31.24-17.505 41.973 14.071 88.048 59.285 87.229 14.429 25.643 44.523 37.606 72.45 29.503 10.287 9.14 24.546 12.389 37.663 9.473 3.752 11.781 6.52 23.482 8.312 35.046-38.944.241-70.555 31.988-70.555 70.988 0 30.389 19.136 56.487 46.252 66.559-38.139 71.029-113.144 119.441-199.252 119.441z"/><path d="m304 305.013c-39.149 0-71 31.851-71 71s31.851 71 71 71 71-31.851 71-71-31.851-71-71-71zm0 112c-22.607 0-41-18.393-41-41s18.393-41 41-41 41 18.393 41 41-18.393 41-41 41z"/><path d="m279 188.013c0-28.121-22.878-51-51-51s-51 22.879-51 51 22.878 51 51 51 51-22.879 51-51zm-51 21c-11.58 0-21-9.421-21-21s9.42-21 21-21 21 9.421 21 21-9.42 21-21 21z"/><path d="m148 273.013c-28.122 0-51 22.879-51 51s22.878 51 51 51 51-22.879 51-51-22.878-51-51-51zm0 72c-11.58 0-21-9.421-21-21s9.42-21 21-21 21 9.421 21 21-9.42 21-21 21z"/></g></svg>